<svg width="184" height="134" viewBox="0 0 184 134" fill="none" xmlns="http://www.w3.org/2000/svg">
<path d="M0 0V37.1717C20.4444 38.101 53.899 49.2525 53.899 92.9293C53.899 130.101 19.5152 146.828 0 146.828V184H36.2424C36.2424 165.414 51.1111 130.101 91.0707 130.101C132.889 130.101 147.758 166.343 147.758 184H184V147.758C166.343 147.758 130.101 133.818 130.101 93.8586C130.101 52.9697 163.556 36.2424 184 36.2424V0H147.758C147.758 18.5859 131.96 53.899 92 53.899C54.8208 53.899 36.2424 22.303 36.2424 0H0Z" fill="#FD8616"/>
</svg>
