<svg width="200" height="100" viewBox="0 0 200 100" fill="none" xmlns="http://www.w3.org/2000/svg">
<g clip-path="url(#clip0_700_9868)">
<rect width="200" height="200" transform="translate(0 -100)" fill="#FD8616"/>
<path d="M0 0L20.202 20.202C31.8182 9.59597 56.0606 -2.52525 79.798 21.2121C100 41.4142 90.4041 69.192 79.798 79.798L100 100L119.697 80.3031C109.596 70.2021 98.4849 42.9293 120.202 21.2121C142.929 -1.51515 170.707 10.101 180.303 19.697L200 0L180.303 -19.697C170.707 -10.101 143.434 2.0202 121.717 -19.697C99.495 -41.9192 108.586 -69.192 119.697 -80.3031L100 -100L80.3031 -80.3031C90.4041 -70.2021 101.01 -42.4243 79.293 -20.7071C59.0869 -0.501012 31.8182 -7.57576 19.697 -19.697L0 0Z" fill="#F7B03C"/>
</g>
<defs>
<clipPath id="clip0_700_9868">
<rect width="200" height="200" fill="white" transform="translate(0 -100)"/>
</clipPath>
</defs>
</svg>
