<svg width="155" height="200" viewBox="0 0 155 200" fill="none" xmlns="http://www.w3.org/2000/svg">
<rect width="200" height="200" fill="#FD8616"/>
<path d="M66.7404 72.7044V40.4455C66.7404 40.4455 76.3986 38.9435 84.792 32.6646C93.1855 26.3858 98.9994 10.668 98.9994 10.668C98.9994 10.668 104.994 26.3858 113.388 32.6646C120.549 38.0221 131.258 40.4455 131.258 40.4455V72.7044H143.666C143.666 72.7044 165.999 78.908 165.999 100C165.999 121.093 143.666 127.296 143.666 127.296H131.258V159.551C131.258 159.551 119.908 161.541 111.188 169.536C102.468 177.531 98.9994 189.333 98.9994 189.333C98.9994 189.333 95.7904 178.335 86.9917 169.536C78.193 160.737 66.7404 159.534 66.7404 159.534V127.296H54.3331C54.3331 127.296 32 123.574 32 100C32 76.4266 54.3331 72.7044 54.3331 72.7044H66.7404Z" fill="#161616" stroke="#FD8616" stroke-width="1.35516"/>
</svg>
