<svg width="125" height="69" viewBox="0 0 125 69" fill="none" xmlns="http://www.w3.org/2000/svg">
<rect width="200" height="200" transform="translate(0 -131)" fill="#FD8616"/>
<path d="M12 -119V-83.4444C31.5556 -82.5556 63.5556 -71.8889 63.5556 -30.1111C63.5556 5.44444 30.6667 21.4444 12 21.4444V57H46.6667C46.6667 39.2222 60.8889 5.44444 99.1111 5.44444C139.111 5.44444 153.333 40.1111 153.333 57H188V22.3333C171.111 22.3333 136.444 9 136.444 -29.2222C136.444 -68.3333 168.444 -84.3333 188 -84.3333V-119H153.333C153.333 -101.222 138.222 -67.4444 100 -67.4444C64.4373 -67.4444 46.6667 -97.6667 46.6667 -119H12Z" fill="#F7B03C"/>
</svg>
