<svg width="38" height="38" viewBox="0 0 38 38" fill="none" xmlns="http://www.w3.org/2000/svg">
<g clip-path="url(#clip0_700_9325)">
<path d="M25.9099 16.8677L25.5543 19.7229C25.4942 20.1998 25.0903 20.5586 24.6112 20.5586H19.9868V32.4962C19.4991 32.5402 19.005 32.5628 18.5055 32.5628C17.3883 32.5628 16.298 32.451 15.2442 32.2383V20.5586H11.6876C11.361 20.5586 11.0946 20.2912 11.0946 19.9635V16.3908C11.0946 16.0631 11.361 15.7956 11.6876 15.7956H15.2442V10.4376C15.2442 7.14945 17.8986 4.48438 21.1738 4.48438H25.3234C25.6499 4.48438 25.9163 4.75185 25.9163 5.07948V8.65225C25.9163 8.97988 25.6499 9.24735 25.3234 9.24735H22.3586C21.0492 9.24735 19.9879 10.313 19.9879 11.6288V15.7967H24.9678C25.5393 15.7967 25.9808 16.2994 25.911 16.8688L25.9099 16.8677Z" fill="white" fill-opacity="0.87"/>
</g>
<defs>
<clipPath id="clip0_700_9325">
<rect x="0.127808" width="37.632" height="37.632" rx="7.5264" fill="white"/>
</clipPath>
</defs>
</svg>
