<svg width="32" height="31" viewBox="0 0 32 31" fill="none" xmlns="http://www.w3.org/2000/svg">
<path d="M23.9326 5.47192C23.5789 5.47192 23.2331 5.5768 22.939 5.7733C22.645 5.96979 22.4158 6.24908 22.2804 6.57585C22.1451 6.90261 22.1096 7.26217 22.1786 7.60905C22.2476 7.95594 22.418 8.27458 22.6681 8.52467C22.9182 8.77476 23.2368 8.94508 23.5837 9.01408C23.9306 9.08308 24.2901 9.04767 24.6169 8.91232C24.9436 8.77697 25.2229 8.54777 25.4194 8.25369C25.6159 7.95961 25.7208 7.61386 25.7208 7.26018C25.7208 6.78591 25.5324 6.33105 25.197 5.99569C24.8617 5.66033 24.4068 5.47192 23.9326 5.47192Z" fill="#F8F1DE"/>
<path d="M15.9339 7.88918C14.4378 7.89272 12.9764 8.33982 11.7344 9.17394C10.4924 10.0081 9.52568 11.1917 8.95643 12.5753C8.38718 13.9588 8.24097 15.4801 8.53631 16.9468C8.83165 18.4134 9.55526 19.7595 10.6156 20.8149C11.676 21.8703 13.0256 22.5875 14.4936 22.8759C15.9616 23.1643 17.4822 23.0109 18.863 22.4352C20.2439 21.8594 21.423 20.887 22.2512 19.6411C23.0794 18.3952 23.5196 16.9317 23.5161 15.4356C23.5137 14.4423 23.3158 13.4591 22.9334 12.5422C22.5511 11.6254 21.992 10.7928 21.2879 10.0921C20.5838 9.39132 19.7486 8.83611 18.83 8.45814C17.9113 8.08016 16.9272 7.88683 15.9339 7.88918ZM15.9339 20.2818C14.9746 20.2853 14.0359 20.0041 13.2366 19.4738C12.4373 18.9434 11.8134 18.1878 11.4439 17.3026C11.0743 16.4174 10.9758 15.4424 11.1608 14.5012C11.3457 13.56 11.8059 12.6948 12.4829 12.0152C13.1599 11.3357 14.0234 10.8724 14.964 10.6839C15.9045 10.4955 16.8798 10.5904 17.7664 10.9567C18.653 11.3229 19.4109 11.9441 19.9442 12.7414C20.4775 13.5387 20.7622 14.4764 20.7622 15.4356C20.7622 16.7178 20.2541 17.9478 19.3491 18.8561C18.4441 19.7644 17.2161 20.2771 15.9339 20.2818Z" fill="#F8F1DE"/>
<path d="M21.9295 30.6686H9.67992C7.2405 30.6639 4.90261 29.6915 3.17936 27.9649C1.4561 26.2383 0.488277 23.8985 0.488281 21.4591V9.20952C0.488277 6.7701 1.4561 4.43033 3.17936 2.70372C4.90261 0.977109 7.2405 0.00473674 9.67992 0H21.9295C24.3705 0.00472618 26.7103 0.976528 28.4364 2.70263C30.1625 4.42872 31.1343 6.76846 31.139 9.20952V21.4591C31.1343 23.9002 30.1625 26.2399 28.4364 27.966C26.7103 29.6921 24.3705 30.6639 21.9295 30.6686ZM9.67992 2.89697C8.00573 2.89697 6.40011 3.56204 5.21628 4.74588C4.03245 5.92971 3.36738 7.53533 3.36738 9.20952V21.4591C3.36738 23.1333 4.03245 24.7389 5.21628 25.9227C6.40011 27.1066 8.00573 27.7716 9.67992 27.7716H21.9295C23.6053 27.7716 25.2128 27.1071 26.3995 25.9238C27.5861 24.7405 28.2552 23.1349 28.2599 21.4591V9.20952C28.2552 7.53369 27.5861 5.92811 26.3995 4.74479C25.2128 3.56146 23.6053 2.89697 21.9295 2.89697H9.67992Z" fill="#F8F1DE"/>
</svg>
