<svg width="31" height="31" viewBox="0 0 31 31" fill="none" xmlns="http://www.w3.org/2000/svg">
<path d="M25.9774 26.0682H21.46V18.9936C21.46 17.3065 21.4299 15.1348 19.1105 15.1348C16.7577 15.1348 16.3977 16.9729 16.3977 18.8707V26.0678H11.8803V11.5194H16.217V13.5076H16.2777C16.7117 12.7655 17.3389 12.155 18.0924 11.7412C18.8459 11.3273 19.6975 11.1256 20.5566 11.1575C25.1351 11.1575 25.9793 14.1692 25.9793 18.0872L25.9774 26.0682ZM6.78316 9.53069C6.26467 9.53078 5.75779 9.37712 5.32664 9.08913C4.89548 8.80115 4.55943 8.39177 4.36092 7.91277C4.16242 7.43377 4.1104 6.90667 4.21146 6.39811C4.31252 5.88955 4.56212 5.42238 4.92868 5.05568C5.29524 4.68898 5.7623 4.43921 6.27081 4.33796C6.77931 4.23672 7.30641 4.28854 7.78546 4.48688C8.26451 4.68521 8.674 5.02115 8.96213 5.45222C9.25026 5.88329 9.40411 6.39012 9.4042 6.90862C9.40426 7.2529 9.3365 7.59381 9.20482 7.9119C9.07313 8.22999 8.88011 8.51903 8.63672 8.76251C8.39333 9.00599 8.10435 9.19915 7.78632 9.33095C7.46829 9.46275 7.12742 9.53063 6.78316 9.53069ZM9.04186 26.0682H4.51975V11.5194H9.04186V26.0682ZM28.2295 0.0922872H2.24977C1.6601 0.0856326 1.09188 0.313363 0.67003 0.725435C0.248177 1.13751 0.00719657 1.70021 0 2.28989V28.3783C0.00695026 28.9683 0.247789 29.5314 0.669628 29.9439C1.09147 30.3564 1.65981 30.5846 2.24977 30.5783H28.2295C28.8207 30.5857 29.3906 30.3582 29.8141 29.9457C30.2376 29.5332 30.4801 28.9695 30.4882 28.3783V2.28801C30.4798 1.69716 30.2372 1.13382 29.8137 0.721754C29.3902 0.309691 28.8204 0.0826115 28.2295 0.0904041" fill="#F8F1DE"/>
</svg>
