<svg width="10" height="12" viewBox="0 0 10 12" fill="none" xmlns="http://www.w3.org/2000/svg">
<path d="M1.25098 3.02513C1.25098 7.04486 4.14443 10.3035 7.71367 10.3035C7.8747 10.3035 8.03435 10.2969 8.19245 10.2838C8.37387 10.2688 8.46455 10.2614 8.54715 10.2079C8.61553 10.1635 8.68037 10.0849 8.71464 10.0049C8.75604 9.90822 8.75604 9.79547 8.75604 9.57003V8.24711C8.75604 8.05749 8.75604 7.96268 8.72832 7.88145C8.70388 7.80965 8.66411 7.74574 8.61257 7.69531C8.55424 7.63821 8.4751 7.60581 8.31691 7.54101L6.97984 6.99344C6.79576 6.91807 6.7037 6.88037 6.61639 6.88675C6.53938 6.89239 6.46529 6.92202 6.40233 6.97226C6.33095 7.02922 6.28058 7.12379 6.1798 7.31298L5.83741 7.95564C4.73254 7.39211 3.83685 6.38206 3.33572 5.1382L3.90637 4.7526C4.07432 4.63911 4.1583 4.58236 4.20889 4.50196C4.2535 4.43107 4.27981 4.34762 4.28482 4.2609C4.29049 4.16256 4.25701 4.05891 4.19009 3.8516L3.70388 2.34575C3.64634 2.16758 3.61758 2.07848 3.56688 2.01278C3.5221 1.95473 3.46534 1.90996 3.4016 1.8824C3.32945 1.8512 3.24527 1.8512 3.07693 1.8512H1.90225C1.70206 1.8512 1.60197 1.8512 1.51615 1.8978C1.44507 1.9364 1.37529 2.00945 1.33591 2.08647C1.28837 2.17946 1.28173 2.28162 1.26844 2.48593C1.25687 2.66396 1.25098 2.84377 1.25098 3.02513Z" stroke="#F8F1DE" stroke-width="0.500338" stroke-linecap="round" stroke-linejoin="round"/>
</svg>
