<svg width="30" height="25" viewBox="0 0 30 25" fill="none" xmlns="http://www.w3.org/2000/svg">
<path d="M29.108 3.35312C28.1743 3.75554 27.1925 4.03492 26.1871 4.18427C26.6559 4.18427 27.341 3.26278 27.6295 2.91948C28.0574 2.38198 28.3815 1.76921 28.5851 1.11262C28.5851 1.11262 28.5851 0.986139 28.5851 0.950002C28.5605 0.935729 28.5325 0.928214 28.504 0.928214C28.4755 0.928214 28.4475 0.935729 28.4229 0.950002C27.3344 1.53211 26.1774 1.97523 24.979 2.26901C24.9429 2.288 24.9026 2.29792 24.8618 2.29792C24.821 2.29792 24.7808 2.288 24.7446 2.26901C24.6516 2.15226 24.5491 2.04347 24.4381 1.94377C23.9397 1.51467 23.3728 1.17261 22.7612 0.931929C21.9519 0.594795 21.075 0.452463 20.2009 0.516353C19.3558 0.569248 18.5318 0.803397 17.7848 1.20296C17.027 1.59886 16.3581 2.14614 15.8195 2.81106C15.2605 3.49768 14.8602 4.29987 14.6475 5.15998C14.4852 5.9771 14.4852 6.81826 14.6475 7.63538C14.6475 7.77993 14.6475 7.79799 14.5213 7.77992C9.95646 7.31686 5.7302 5.15738 2.67522 1.72695C2.53098 1.5824 2.45885 1.5824 2.35067 1.72695C1.73109 2.86546 1.49635 4.17451 1.68164 5.45795C1.86692 6.74139 2.46225 7.93011 3.37841 8.84597C3.60632 9.07067 3.84714 9.28183 4.09964 9.47837C3.30289 9.41691 2.52542 9.2022 1.80975 8.84597C1.6655 8.75563 1.61142 8.84597 1.59339 8.95438C1.56684 9.18248 1.56684 9.41289 1.59339 9.64098C1.72429 10.7115 2.13739 11.7277 2.7902 12.5851C3.44301 13.4426 4.31196 14.1102 5.30768 14.5195C5.54786 14.633 5.80279 14.7121 6.06496 14.7544C5.31947 14.8865 4.55663 14.8865 3.81114 14.7544C3.64887 14.7544 3.59478 14.7544 3.64887 14.9712C4.03459 15.9777 4.67139 16.8683 5.49842 17.5579C6.32546 18.2475 7.31511 18.7131 8.37287 18.9102C8.58924 18.9102 8.78758 18.9102 9.00395 18.9102C9.00395 18.9102 9.22032 18.9102 9.00395 18.9102C8.48106 19.7233 6.64195 20.3195 5.79451 20.717C4.23018 21.2779 2.56342 21.4936 0.908221 21.3494C0.637763 21.3494 0.583669 21.3494 0.511547 21.3494C0.439424 21.3494 0.511547 21.4578 0.511547 21.512C0.511547 21.5662 1.19672 21.9276 1.5393 22.1264C2.57762 22.6757 3.67171 23.1118 4.80283 23.4273C7.7182 24.3066 10.8128 24.404 13.7774 23.7096C16.7421 23.0152 19.473 21.5534 21.6975 19.4703C23.2966 17.7307 24.5334 15.6889 25.3353 13.4643C26.1371 11.2398 26.488 8.87726 26.3674 6.51512C26.3674 6.33444 26.5837 6.22603 26.7099 6.13568C27.5952 5.49289 28.3897 4.73315 29.0719 3.87711C29.1694 3.74708 29.2202 3.58794 29.2162 3.4254C29.2162 3.4254 29.2162 3.31698 29.108 3.35312Z" fill="#F8F1DE"/>
</svg>
