<svg width="32" height="28" viewBox="0 0 32 28" fill="none" xmlns="http://www.w3.org/2000/svg">
<path d="M22.1413 0.460327C18.0391 0.460327 14.7099 3.76156 14.621 7.82665C10.9941 7.3934 8.63225 6.04283 7.18344 4.71205C5.57673 3.23625 5.0681 1.92507 5.0681 1.92507C4.99384 1.73873 4.87108 1.57546 4.71245 1.45205C4.55381 1.32864 4.36502 1.24955 4.16551 1.22292C3.966 1.19628 3.76297 1.22307 3.5773 1.30051C3.39163 1.37796 3.23003 1.50327 3.10913 1.66356C3.10913 1.66356 1.74906 3.46915 1.74906 6.10187C1.74906 7.60702 2.22623 8.72071 2.79492 9.66456C2.77397 9.65479 2.63266 9.6058 2.63266 9.6058C2.4521 9.51601 2.25073 9.47589 2.04939 9.48957C1.84804 9.50326 1.65402 9.57026 1.48738 9.68365C1.32074 9.79703 1.18754 9.95269 1.10154 10.1345C1.01554 10.3164 0.979871 10.5178 0.998215 10.7179C0.998215 10.7179 1.43426 13.8923 4.43084 16.2126L4.11812 16.2904C3.94836 16.3326 3.79073 16.4134 3.65757 16.5265C3.52441 16.6395 3.41935 16.7817 3.35061 16.942C3.28188 17.1022 3.25135 17.2761 3.2614 17.4501C3.27146 17.6241 3.32183 17.7934 3.40858 17.9447C3.40858 17.9447 3.91671 18.8008 4.98107 19.7018C5.61213 20.236 6.53916 20.7873 7.63188 21.2973C6.28992 21.7857 4.28888 22.2743 1.37142 22.2743C1.15372 22.2743 0.940618 22.3367 0.757614 22.4541C0.574609 22.5716 0.429451 22.739 0.339505 22.9365C0.24956 23.1339 0.218635 23.353 0.250432 23.5675C0.282228 23.782 0.375399 23.9829 0.518798 24.146C0.518798 24.146 1.38451 25.0958 3.09585 25.9222C4.80719 26.7486 7.44337 27.5397 11.1899 27.5397C17.7756 27.5397 22.5073 24.3934 25.4603 20.4055C28.4133 16.4177 29.6939 11.6389 29.6939 7.98238C29.6939 7.75036 29.6794 7.52161 29.6585 7.29482C31.2531 5.76458 31.8514 4.61418 31.8801 4.55779C32.0236 4.2712 31.9701 3.92701 31.7473 3.69834C31.5253 3.46891 31.1811 3.40431 30.8888 3.5382L30.7663 3.59403C30.6614 3.64217 30.5564 3.69062 30.4507 3.738C30.7581 3.24982 31.0006 2.72813 31.1691 2.18805C31.2627 1.89018 31.1616 1.56377 30.9139 1.3712C30.6661 1.17864 30.3249 1.15802 30.0568 1.32125C29.1337 1.88001 28.2488 2.27118 27.3278 2.5333C25.9724 1.25276 24.1479 0.460327 22.1413 0.460327ZM22.1413 2.71694C25.0741 2.71694 27.4281 5.06144 27.4281 7.98238C27.4281 11.0957 26.2541 15.5314 23.637 19.0657C21.0199 22.5999 17.0661 25.2831 11.1899 25.2831C8.34616 25.2831 6.45451 24.7708 5.03712 24.2165C6.52184 23.9869 7.80021 23.6804 8.71905 23.3262C10.3124 22.7119 11.1722 22.0025 11.1722 22.0025C11.3299 21.8677 11.4473 21.6923 11.5117 21.4955C11.576 21.2986 11.5847 21.088 11.5369 20.8866C11.4891 20.6851 11.3865 20.5007 11.2405 20.3534C11.0945 20.2061 10.9106 20.1017 10.709 20.0515C8.65261 19.5395 7.33375 18.7113 6.50635 18.0211L7.68793 17.7273C7.9216 17.6692 8.13061 17.5385 8.28463 17.3541C8.43864 17.1697 8.52965 16.9412 8.54445 16.7018C8.55925 16.4624 8.49707 16.2245 8.36692 16.0227C8.23678 15.8208 8.04545 15.6656 7.82069 15.5794C5.36976 14.6405 4.34055 13.3128 3.81424 12.2003C4.45469 12.3324 5.051 12.4956 5.90302 12.4956C6.15816 12.4954 6.40576 12.4094 6.60573 12.2516C6.8057 12.0938 6.94635 11.8734 7.00489 11.6261C7.06343 11.3788 7.03644 11.119 6.92829 10.8889C6.82015 10.6587 6.63717 10.4717 6.40899 10.358C6.40899 10.358 4.01486 9.26113 4.01486 6.10187C4.01486 5.53467 4.17259 5.17542 4.28776 4.74584C4.6829 5.27471 5.00855 5.78488 5.64635 6.37072C7.59091 8.15686 10.805 9.9781 15.661 10.2375C15.8147 10.2457 15.9684 10.2226 16.1128 10.1697C16.2572 10.1167 16.3892 10.035 16.5009 9.9296C16.6126 9.82416 16.7015 9.69717 16.7623 9.55638C16.8231 9.41559 16.8544 9.26394 16.8544 9.11069V7.98238C16.8544 5.06144 19.2084 2.71694 22.1413 2.71694Z" fill="white" fill-opacity="0.5"/>
</svg>
