<svg width="29" height="21" viewBox="0 0 29 21" fill="none" xmlns="http://www.w3.org/2000/svg">
<path d="M28.8644 6.59685C28.8644 4.93215 28.2031 3.33562 27.026 2.1585C25.8489 0.981374 24.2523 0.320068 22.5876 0.320068H6.49333C4.82862 0.320068 3.23209 0.981374 2.05496 2.1585C0.877838 3.33562 0.216553 4.93215 0.216553 6.59685V14.0718C0.216553 15.7365 0.877838 17.333 2.05496 18.5101C3.23209 19.6873 4.82862 20.3485 6.49333 20.3485H22.5876C24.2523 20.3485 25.8489 19.6873 27.026 18.5101C28.2031 17.333 28.8644 15.7365 28.8644 14.0718V6.59685ZM19.4224 10.8887L12.2694 14.4652C11.9833 14.6261 11.0176 14.4652 11.0176 14.0896V6.77568C11.0176 6.43591 11.9833 6.2392 12.2694 6.40015L19.1721 10.1555C19.4224 10.3164 19.7264 10.7277 19.4224 10.8887Z" fill="#F8F1DE"/>
</svg>
