<?xml version="1.0" standalone="no"?>
<!DOCTYPE svg PUBLIC "-//W3C//DTD SVG 20010904//EN"
 "http://www.w3.org/TR/2001/REC-SVG-20010904/DTD/svg10.dtd">
<svg version="1.0" xmlns="http://www.w3.org/2000/svg"
 width="447.000000pt" height="447.000000pt" viewBox="0 0 447.000000 447.000000"
 preserveAspectRatio="xMidYMid meet">

<g transform="translate(0.000000,447.000000) scale(0.100000,-0.100000)"
fill="#000000" stroke="none">
<path d="M1360 3030 l0 -871 348 3 347 3 68 34 c96 47 186 134 227 218 29 61
32 75 31 160 -2 187 -93 329 -288 449 l-67 41 -65 -54 c-110 -90 -250 -125
-360 -88 -29 9 -51 18 -49 20 2 2 27 -2 57 -7 147 -30 318 57 386 196 85 173
-7 480 -204 677 -85 86 -95 89 -276 89 l-155 0 0 -870z m371 580 c25 -14 25
-56 -2 -70 -28 -16 -59 -9 -76 17 -13 19 -12 24 6 42 23 23 43 26 72 11z"/>
<path d="M1770 3882 c120 -82 237 -257 291 -432 32 -103 32 -235 1 -303 -12
-27 -22 -52 -22 -55 0 -4 19 -16 43 -27 132 -62 255 -173 307 -278 44 -90 65
-204 51 -276 -27 -132 -118 -247 -254 -315 -42 -22 -77 -40 -77 -42 0 -1 36
-2 79 -3 247 -4 415 80 502 250 31 59 33 72 34 159 0 88 -2 100 -34 164 -63
129 -220 265 -398 346 -40 18 -73 34 -73 36 0 2 13 22 29 46 100 150 73 340
-74 513 -95 112 -297 235 -383 234 l-47 0 25 -17z"/>
<path d="M1975 3867 c184 -100 298 -215 357 -360 15 -38 31 -93 34 -121 8 -66
-16 -164 -56 -228 l-29 -48 82 -39 c171 -82 295 -185 364 -302 127 -213 45
-457 -192 -570 -73 -35 -49 -38 70 -10 167 41 264 101 363 229 210 270 238
813 61 1142 -59 108 -164 209 -275 261 -137 65 -171 70 -524 75 l-315 4 60
-33z"/>
<path d="M2600 1720 l0 -310 133 0 c207 0 294 32 363 133 75 109 65 308 -19
395 -67 71 -149 92 -349 92 l-128 0 0 -310z m275 189 c47 -13 92 -52 111 -96
21 -49 18 -149 -6 -198 -28 -59 -96 -95 -177 -95 l-60 0 -6 98 c-9 127 -9 287
0 295 10 11 94 8 138 -4z"/>
<path d="M1360 1711 l0 -311 138 0 c156 1 213 11 259 46 45 34 63 73 63 138 0
65 -30 108 -94 135 l-39 17 36 21 c72 43 96 122 55 183 -42 63 -82 75 -260 78
l-158 4 0 -311z m274 190 c10 -8 16 -29 16 -52 0 -55 -29 -79 -97 -79 l-53 0
0 76 0 76 59 -4 c33 -2 66 -10 75 -17z m-11 -240 c57 -22 76 -86 38 -132 -16
-19 -30 -24 -90 -27 l-71 -4 0 86 0 86 49 0 c27 0 61 -4 74 -9z"/>
<path d="M1980 1716 c0 -168 4 -307 9 -310 5 -3 83 -2 174 2 151 8 169 11 201
33 55 37 79 89 74 159 -4 51 -8 62 -37 87 -19 15 -50 33 -70 39 l-36 11 31 16
c36 18 79 66 89 98 19 60 -32 139 -104 159 -20 5 -102 10 -183 10 l-148 0 0
-304z m270 186 c30 -24 30 -77 1 -106 -16 -16 -34 -21 -79 -21 l-57 0 -3 73
-3 72 59 0 c43 0 66 -5 82 -18z m18 -252 c27 -17 32 -26 32 -58 0 -58 -32 -83
-114 -89 l-66 -6 0 87 0 86 58 0 c39 0 67 -6 90 -20z"/>
<path d="M702 1066 l3 -155 29 -30 c39 -40 84 -54 147 -46 61 9 105 43 119 93
5 20 10 94 10 165 l0 127 -40 0 -40 0 0 -135 c0 -131 -1 -137 -25 -160 -13
-14 -36 -25 -50 -25 -14 0 -37 11 -50 25 -24 23 -25 29 -25 160 l0 135 -41 0
-40 0 3 -154z"/>
<path d="M1100 1029 l0 -190 38 3 37 3 0 128 c0 70 2 127 5 127 3 0 43 -59 90
-130 l85 -130 42 0 43 0 0 190 0 190 -40 0 -40 0 0 -132 0 -133 -87 133 -87
132 -43 0 -43 0 0 -191z"/>
<path d="M1500 1190 c0 -20 5 -30 15 -30 13 0 15 -21 15 -130 0 -109 -2 -130
-15 -130 -10 0 -15 -10 -15 -30 l0 -30 75 0 c73 0 75 1 75 25 0 14 -8 29 -20
35 -18 10 -20 21 -20 131 0 108 2 121 18 126 11 3 19 15 20 34 l2 29 -75 0
-75 0 0 -30z"/>
<path d="M1670 1213 c0 -4 28 -90 62 -190 l62 -183 47 0 c35 0 49 4 54 18 23
57 115 337 115 348 0 9 -13 14 -38 14 l-38 0 -44 -152 -44 -152 -38 119 c-21
66 -41 135 -44 153 -6 30 -9 32 -50 32 -24 0 -44 -3 -44 -7z"/>
<path d="M2070 1030 l0 -190 115 0 115 0 0 30 0 29 -72 3 -73 3 0 45 0 45 63
3 c61 3 62 3 62 32 0 29 -1 29 -62 32 l-63 3 -3 42 -3 42 68 3 68 3 3 33 3 32
-110 0 -111 0 0 -190z"/>
<path d="M2360 1031 l0 -192 41 3 41 3 1 68 c0 106 37 103 103 -7 38 -65 40
-66 83 -66 34 0 42 3 37 15 -8 22 -84 133 -96 140 -17 10 -11 21 16 33 56 26
64 126 12 165 -22 16 -48 21 -133 25 l-105 5 0 -192z m172 112 c41 -37 9 -93
-54 -93 l-38 0 1 48 c1 26 4 50 6 55 8 13 66 7 85 -10z"/>
<path d="M2754 1201 c-36 -22 -59 -78 -49 -113 11 -36 35 -58 96 -88 63 -33
82 -51 73 -73 -12 -33 -92 -39 -144 -12 l-31 16 4 -36 c3 -20 9 -41 16 -48 15
-15 140 -15 178 2 41 17 63 51 63 95 0 46 -30 79 -105 119 -64 34 -80 61 -49
84 21 15 87 17 114 3 22 -12 32 13 19 48 -8 20 -15 22 -81 22 -54 0 -81 -5
-104 -19z"/>
<path d="M3000 1191 c0 -16 6 -31 15 -35 12 -4 15 -29 15 -131 0 -104 -2 -125
-15 -125 -10 0 -15 -10 -15 -30 l0 -30 70 0 70 0 0 30 c0 20 -5 30 -15 30 -13
0 -15 21 -15 125 0 102 3 127 15 131 9 4 15 19 15 35 l0 29 -70 0 -70 0 0 -29z"/>
<path d="M3170 1185 l0 -35 55 0 55 0 0 -155 0 -155 40 0 40 0 0 155 0 155 55
0 55 0 0 35 0 35 -150 0 -150 0 0 -35z"/>
<path d="M3490 1210 c0 -6 25 -60 55 -120 51 -102 55 -115 55 -180 l0 -70 40
0 40 0 0 61 c0 56 6 74 65 190 l65 129 -44 0 c-41 0 -45 -2 -59 -37 -8 -21
-25 -60 -37 -87 l-22 -49 -25 59 c-13 33 -29 71 -35 87 -9 24 -15 27 -54 27
-24 0 -44 -5 -44 -10z"/>
</g>
</svg>
