<svg width="38" height="38" viewBox="0 0 38 38" fill="none" xmlns="http://www.w3.org/2000/svg">
<g clip-path="url(#clip0_700_9304)">
<path d="M24.8545 6.70312H11.8366C8.4822 6.70312 5.76172 9.4236 5.76172 12.778V25.7959C5.76172 29.1504 8.4822 31.8708 11.8366 31.8708H24.8545C28.2089 31.8708 30.9294 29.1504 30.9294 25.7959V12.778C30.9294 9.4236 28.2089 6.70312 24.8545 6.70312ZM28.7596 25.3613C28.7596 27.7569 26.8155 29.701 24.4198 29.701H12.2701C9.87443 29.701 7.93038 27.7569 7.93038 25.3613V13.2115C7.93038 10.8158 9.87443 8.87178 12.2701 8.87178H24.4198C26.8155 8.87178 28.7596 10.8158 28.7596 13.2115V25.3613Z" fill="white" fill-opacity="0.87"/>
<path d="M18.358 12.7773C14.7657 12.7773 11.8496 15.6934 11.8496 19.2857C11.8496 22.878 14.7657 25.7941 18.358 25.7941C21.9503 25.7941 24.8664 22.878 24.8664 19.2857C24.8664 15.6934 21.9503 12.7773 18.358 12.7773ZM18.3461 23.5205C15.9553 23.5205 13.9945 21.7082 13.9945 19.3173C13.9945 16.9265 15.9672 15.0533 18.358 15.0533C20.7488 15.0533 22.5797 16.8961 22.5797 19.2869C22.5797 21.6777 20.7369 23.5205 18.3461 23.5205Z" fill="white" fill-opacity="0.87"/>
<path d="M25.3017 13.6463C26.0206 13.6463 26.6034 13.0635 26.6034 12.3446C26.6034 11.6257 26.0206 11.043 25.3017 11.043C24.5828 11.043 24 11.6257 24 12.3446C24 13.0635 24.5828 13.6463 25.3017 13.6463Z" fill="white" fill-opacity="0.87"/>
</g>
<defs>
<clipPath id="clip0_700_9304">
<rect width="37.632" height="37.632" rx="7.5264" fill="white"/>
</clipPath>
</defs>
</svg>
