<svg width="38" height="38" viewBox="0 0 38 38" fill="none" xmlns="http://www.w3.org/2000/svg">
<g clip-path="url(#clip0_700_9314)">
<path d="M10.4503 12.4172C12.1123 12.4172 13.4597 11.0699 13.4597 9.40782C13.4597 7.74578 12.1123 6.39844 10.4503 6.39844C8.78828 6.39844 7.44092 7.74578 7.44092 9.40782C7.44092 11.0699 8.78828 12.4172 10.4503 12.4172Z" fill="white" fill-opacity="0.87"/>
<path d="M12.734 14.4219H8.16761C8.04356 14.4219 7.94299 14.5224 7.94299 14.6465V29.243C7.94299 29.3671 8.04356 29.4676 8.16761 29.4676H12.734C12.8581 29.4676 12.9586 29.3671 12.9586 29.243V14.6465C12.9586 14.5224 12.8581 14.4219 12.734 14.4219Z" fill="white" fill-opacity="0.87"/>
<path d="M30.0102 19.9406V28.4666C30.0102 29.0182 29.5586 29.4698 29.0071 29.4698H25.9977C25.4462 29.4698 24.9946 29.0182 24.9946 28.4666V21.4448C24.9946 20.0606 23.8715 18.9375 22.4873 18.9375C21.1032 18.9375 19.9801 20.0606 19.9801 21.4448V28.4666C19.9801 29.0182 19.5285 29.4698 18.977 29.4698H15.9676C15.4161 29.4698 14.9645 29.0182 14.9645 28.4666V15.426C14.9645 14.8744 15.4161 14.4229 15.9676 14.4229H18.977C19.5285 14.4229 19.9801 14.8744 19.9801 15.426V16.0681C20.9832 14.7686 22.6437 13.9219 24.4936 13.9219C27.2619 13.9219 30.0102 15.9281 30.0102 19.9406Z" fill="white" fill-opacity="0.87"/>
</g>
<defs>
<clipPath id="clip0_700_9314">
<rect x="0.0640869" width="37.632" height="37.632" rx="7.5264" fill="white"/>
</clipPath>
</defs>
</svg>
