<svg width="38" height="38" viewBox="0 0 38 38" fill="none" xmlns="http://www.w3.org/2000/svg">
<g clip-path="url(#clip0_700_9310)">
<path d="M28.7633 8.76172H8.62548C6.63569 8.76172 5.02222 10.3752 5.02222 12.3638V24.9588C5.02222 26.9486 6.63569 28.5609 8.62548 28.5609H28.7633C30.7519 28.5609 32.3654 26.9486 32.3654 24.9588V12.3638C32.3654 10.3752 30.7519 8.76172 28.7633 8.76172ZM21.9284 19.5303L16.3283 22.3292C15.6815 22.6526 14.9218 22.1834 14.9218 21.4613V15.8636C14.9218 15.1415 15.6827 14.6723 16.3283 14.9945L21.9284 17.7934C22.6434 18.1509 22.6434 19.1728 21.9284 19.5303Z" fill="white" fill-opacity="0.87"/>
</g>
<defs>
<clipPath id="clip0_700_9310">
<rect x="0.0319824" width="37.632" height="37.632" rx="7.5264" fill="white"/>
</clipPath>
</defs>
</svg>
