<svg width="37" height="28" viewBox="0 0 37 28" fill="none" xmlns="http://www.w3.org/2000/svg">
<path d="M18.58 0.460327C13.4761 0.460327 8.96515 0.989222 6.212 1.39118C3.93536 1.72439 2.09816 3.438 1.67989 5.70696C1.32516 7.63743 0.959839 10.4617 0.959839 14C0.959839 17.5383 1.32516 20.3626 1.67989 22.2931C2.09816 24.5621 3.93536 26.281 6.212 26.6089C8.97574 27.0108 13.5026 27.5397 18.58 27.5397C23.6574 27.5397 28.1843 27.0108 30.948 26.6089C33.2246 26.281 35.0618 24.5621 35.4801 22.2931C35.8348 20.3573 36.2002 17.5278 36.2002 14C36.2002 10.4723 35.8401 7.64272 35.4801 5.70696C35.0618 3.438 33.2246 1.72439 30.948 1.39118C28.1948 0.989222 23.6839 0.460327 18.58 0.460327ZM18.58 3.16827C23.5039 3.16827 27.9037 3.67072 30.5668 4.05681C31.7104 4.22606 32.6052 5.08816 32.8117 6.2147C33.1399 8.00237 33.4894 10.6521 33.4894 14C33.4894 17.3426 33.1399 19.9977 32.8117 21.7854C32.6052 22.9119 31.7157 23.7793 30.5668 23.9432C27.8931 24.3293 23.4721 24.8318 18.58 24.8318C13.6879 24.8318 9.26165 24.3293 6.59321 23.9432C5.44959 23.7793 4.55482 22.9119 4.34833 21.7854C4.02007 19.9977 3.67063 17.3532 3.67063 14C3.67063 10.6415 4.02007 8.00237 4.34833 6.2147C4.55482 5.08816 5.4443 4.22606 6.59321 4.05681C9.25106 3.67072 13.6561 3.16827 18.58 3.16827ZM14.5138 6.25701V21.743L16.5469 20.6006L26.0347 15.1848L28.0678 14L26.0347 12.8153L16.5469 7.39943L14.5138 6.25701ZM17.2246 10.9113L22.6038 14L17.2246 17.0888V10.9113Z" fill="white" fill-opacity="0.5"/>
</svg>
