<svg width="72" height="72" viewBox="0 0 72 72" fill="none" xmlns="http://www.w3.org/2000/svg">
<path d="M0.328125 0.138672V14.5123C8.23362 14.8716 21.1699 19.1837 21.1699 36.0727C21.1699 50.4464 7.87428 56.9145 0.328125 56.9145V71.2881H14.3424C14.3424 64.1013 20.0919 50.4464 35.5435 50.4464C51.7138 50.4464 57.4633 64.4606 57.4633 71.2881H71.4776V57.2738C64.6501 57.2738 50.6358 51.8837 50.6358 36.4321C50.6358 20.6211 63.5721 14.153 71.4776 14.153V0.138672H57.4633C57.4633 7.32549 51.3545 20.9804 35.9029 20.9804C21.5264 20.9804 14.3424 8.76285 14.3424 0.138672H0.328125Z" fill="#BDF522"/>
</svg>
