<svg width="84" height="84" viewBox="0 0 84 84" fill="none" xmlns="http://www.w3.org/2000/svg">
<g clip-path="url(#clip0_594_4808)">
<rect width="82.7319" height="82.7319" transform="translate(0.544922 0.724609)" fill="#BDF522"/>
<path d="M-0.249993 43.2285L-0.123025 45.6667C0.205299 51.9715 5.24334 57.0096 11.5482 57.3379L13.9863 57.4649L11.5482 57.5918C5.24334 57.9201 0.205298 62.9582 -0.123025 69.263L-0.249993 71.7012L-0.376962 69.263C-0.705286 62.9582 -5.74333 57.9201 -12.0481 57.5918L-14.4863 57.4649L-12.0481 57.3379C-5.74332 57.0096 -0.705285 51.9715 -0.376962 45.6667L-0.249993 43.2285Z" fill="#161616"/>
<path d="M28.2207 43.2285L28.3477 45.6667C28.676 51.9715 33.714 57.0096 40.0189 57.3379L42.457 57.4649L40.0189 57.5918C33.714 57.9201 28.676 62.9582 28.3477 69.263L28.2207 71.7012L28.0937 69.263C27.7654 62.9582 22.7274 57.9201 16.4226 57.5918L13.9844 57.4649L16.4226 57.3379C22.7274 57.0096 27.7654 51.9715 28.0937 45.6667L28.2207 43.2285Z" fill="#161616"/>
<path d="M56.6973 43.2285L56.8242 45.6667C57.1526 51.9715 62.1906 57.0096 68.4954 57.3379L70.9336 57.4649L68.4954 57.5918C62.1906 57.9201 57.1526 62.9582 56.8242 69.263L56.6973 71.7012L56.5703 69.263C56.242 62.9582 51.2039 57.9201 44.8991 57.5918L42.4609 57.4649L44.8991 57.3379C51.2039 57.0096 56.242 51.9715 56.5703 45.6667L56.6973 43.2285Z" fill="#161616"/>
<path d="M85.168 43.2285L85.2949 45.6667C85.6233 51.9715 90.6613 57.0096 96.9661 57.3379L99.4043 57.4649L96.9661 57.5918C90.6613 57.9201 85.6233 62.9582 85.2949 69.263L85.168 71.7012L85.041 69.263C84.7127 62.9582 79.6746 57.9201 73.3698 57.5918L70.9316 57.4649L73.3698 57.3379C79.6746 57.0096 84.7127 51.9715 85.041 45.6667L85.168 43.2285Z" fill="#161616"/>
<path d="M14.2697 57.4647L14.3967 59.9029C14.725 66.2077 19.7631 71.2457 26.0679 71.5741L28.5061 71.701L26.0679 71.828C19.7631 72.1563 14.725 77.1944 14.3967 83.4992L14.2697 85.9374L14.1428 83.4992C13.8144 77.1944 8.77639 72.1563 2.47157 71.828L0.0333862 71.701L2.47158 71.5741C8.77639 71.2457 13.8144 66.2077 14.1428 59.9029L14.2697 57.4647Z" fill="#161616"/>
<path d="M42.7461 57.4648L42.8731 59.903C43.2014 66.2078 48.2394 71.2459 54.5442 71.5742L56.9824 71.7012L54.5442 71.8281C48.2394 72.1565 43.2014 77.1945 42.8731 83.4993L42.7461 85.9375L42.6191 83.4993C42.2908 77.1945 37.2528 72.1565 30.948 71.8281L28.5098 71.7012L30.948 71.5742C37.2528 71.2459 42.2908 66.2078 42.6191 59.903L42.7461 57.4648Z" fill="#161616"/>
<path d="M71.2169 57.4647L71.3438 59.9029C71.6722 66.2077 76.7102 71.2457 83.015 71.5741L85.4532 71.701L83.015 71.828C76.7102 72.1563 71.6722 77.1944 71.3438 83.4992L71.2169 85.9374L71.0899 83.4992C70.7616 77.1944 65.7235 72.1563 59.4187 71.828L56.9805 71.701L59.4187 71.5741C65.7235 71.2457 70.7616 66.2077 71.0899 59.9029L71.2169 57.4647Z" fill="#161616"/>
<path d="M0.0332098 14.7559L0.160178 17.194C0.488503 23.4989 5.52654 28.5369 11.8314 28.8652L14.2695 28.9922L11.8314 29.1192C5.52654 29.4475 0.488502 34.4855 0.160178 40.7903L0.0332098 43.2285L-0.0937586 40.7903C-0.422083 34.4855 -5.46012 29.4475 -11.7649 29.1192L-14.2031 28.9922L-11.7649 28.8652C-5.46012 28.5369 -0.422082 23.4989 -0.0937586 17.194L0.0332098 14.7559Z" fill="#161616"/>
<path d="M28.5078 14.7559L28.6348 17.194C28.9631 23.4989 34.0012 28.5369 40.306 28.8652L42.7442 28.9922L40.306 29.1192C34.0012 29.4475 28.9631 34.4855 28.6348 40.7903L28.5078 43.2285L28.3809 40.7903C28.0525 34.4855 23.0145 29.4475 16.7097 29.1192L14.2715 28.9922L16.7097 28.8652C23.0145 28.5369 28.0525 23.4989 28.3809 17.194L28.5078 14.7559Z" fill="#161616"/>
<path d="M56.9805 14.7559L57.1074 17.194C57.4358 23.4989 62.4738 28.5369 68.7786 28.8652L71.2168 28.9922L68.7786 29.1192C62.4738 29.4475 57.4358 34.4855 57.1074 40.7903L56.9805 43.2285L56.8535 40.7903C56.5252 34.4855 51.4871 29.4475 45.1823 29.1192L42.7441 28.9922L45.1823 28.8652C51.4871 28.5369 56.5252 23.4989 56.8535 17.194L56.9805 14.7559Z" fill="#161616"/>
<path d="M85.4551 14.7559L85.5821 17.194C85.9104 23.4989 90.9484 28.5369 97.2532 28.8652L99.6914 28.9922L97.2532 29.1192C90.9484 29.4475 85.9104 34.4855 85.5821 40.7903L85.4551 43.2285L85.3281 40.7903C84.9998 34.4855 79.9618 29.4475 73.6569 29.1192L71.2188 28.9922L73.6569 28.8652C79.9618 28.5369 84.9998 23.4989 85.3281 17.194L85.4551 14.7559Z" fill="#161616"/>
<path d="M14.2695 28.9902L14.3965 31.4284C14.7248 37.7332 19.7629 42.7713 26.0677 43.0996L28.5059 43.2266L26.0677 43.3535C19.7629 43.6819 14.7248 48.7199 14.3965 55.0247L14.2695 57.4629L14.1426 55.0247C13.8142 48.7199 8.77621 43.6819 2.47139 43.3535L0.0332031 43.2266L2.47139 43.0996C8.77621 42.7713 13.8142 37.7332 14.1426 31.4284L14.2695 28.9902Z" fill="#161616"/>
<path d="M42.7461 28.9902L42.8731 31.4284C43.2014 37.7332 48.2394 42.7713 54.5442 43.0996L56.9824 43.2266L54.5442 43.3535C48.2394 43.6819 43.2014 48.7199 42.8731 55.0247L42.7461 57.4629L42.6191 55.0247C42.2908 48.7199 37.2528 43.6819 30.948 43.3535L28.5098 43.2266L30.948 43.0996C37.2528 42.7713 42.2908 37.7332 42.6191 31.4284L42.7461 28.9902Z" fill="#161616"/>
<path d="M71.2168 28.9902L71.3438 31.4284C71.6721 37.7332 76.7101 42.7713 83.0149 43.0996L85.4531 43.2266L83.0149 43.3535C76.7101 43.6819 71.6721 48.7199 71.3438 55.0247L71.2168 57.4629L71.0898 55.0247C70.7615 48.7199 65.7235 43.6819 59.4187 43.3535L56.9805 43.2266L59.4187 43.0996C65.7235 42.7713 70.7615 37.7332 71.0898 31.4284L71.2168 28.9902Z" fill="#161616"/>
<path d="M13.9863 -1.75781L14.1133 0.680378C14.4416 6.98519 19.4797 12.0232 25.7845 12.3516L28.2227 12.4785L25.7845 12.6055C19.4797 12.9338 14.4416 17.9719 14.1133 24.2767L13.9863 26.7149L13.8594 24.2767C13.531 17.9719 8.493 12.9338 2.18819 12.6055L-0.25 12.4785L2.18819 12.3516C8.493 12.0232 13.531 6.98519 13.8594 0.680376L13.9863 -1.75781Z" fill="#161616"/>
<path d="M42.459 -1.75781L42.586 0.680378C42.9143 6.98519 47.9523 12.0232 54.2571 12.3516L56.6953 12.4785L54.2571 12.6055C47.9523 12.9338 42.9143 17.9719 42.586 24.2767L42.459 26.7149L42.332 24.2767C42.0037 17.9719 36.9657 12.9338 30.6608 12.6055L28.2227 12.4785L30.6608 12.3516C36.9657 12.0232 42.0037 6.98519 42.332 0.680376L42.459 -1.75781Z" fill="#161616"/>
<path d="M70.9336 -1.75781L71.0606 0.680378C71.3889 6.98519 76.4269 12.0232 82.7317 12.3516L85.1699 12.4785L82.7317 12.6055C76.4269 12.9338 71.3889 17.9719 71.0606 24.2767L70.9336 26.7149L70.8066 24.2767C70.4783 17.9719 65.4403 12.9338 59.1355 12.6055L56.6973 12.4785L59.1355 12.3516C65.4403 12.0232 70.4783 6.98519 70.8066 0.680376L70.9336 -1.75781Z" fill="#161616"/>
<path d="M28.0197 -15.8224L28.1467 -13.3843C28.475 -7.07944 33.5131 -2.04141 39.8179 -1.71308L42.2561 -1.58611L39.8179 -1.45915C33.5131 -1.13082 28.475 3.90722 28.1467 10.212L28.0197 12.6502L27.8928 10.212C27.5644 3.90722 22.5264 -1.13082 16.2216 -1.45915L13.7834 -1.58611L16.2216 -1.71308C22.5264 -2.04141 27.5644 -7.07945 27.8928 -13.3843L28.0197 -15.8224Z" fill="#161616"/>
<path d="M56.9746 -15.8223L57.1016 -13.3841C57.4299 -7.07926 62.4679 -2.04122 68.7728 -1.7129L71.211 -1.58593L68.7728 -1.45896C62.4679 -1.13064 57.4299 3.9074 57.1016 10.2122L56.9746 12.6504L56.8476 10.2122C56.5193 3.9074 51.4813 -1.13064 45.1765 -1.45896L42.7383 -1.58593L45.1765 -1.7129C51.4813 -2.04122 56.5193 -7.07926 56.8476 -13.3841L56.9746 -15.8223Z" fill="#161616"/>
<path d="M28.0195 71.875L28.1465 74.3132C28.4748 80.618 33.5129 85.656 39.8177 85.9844L42.2559 86.1113L39.8177 86.2383C33.5129 86.5666 28.4748 91.6047 28.1465 97.9095L28.0195 100.348L27.8926 97.9095C27.5642 91.6047 22.5262 86.5666 16.2214 86.2383L13.7832 86.1113L16.2214 85.9844C22.5262 85.656 27.5642 80.618 27.8926 74.3132L28.0195 71.875Z" fill="#161616"/>
<path d="M56.9746 71.875L57.1016 74.3132C57.4299 80.618 62.4679 85.656 68.7728 85.9844L71.211 86.1113L68.7728 86.2383C62.4679 86.5666 57.4299 91.6047 57.1016 97.9095L56.9746 100.348L56.8476 97.9095C56.5193 91.6047 51.4813 86.5666 45.1765 86.2383L42.7383 86.1113L45.1765 85.9844C51.4813 85.656 56.5193 80.618 56.8476 74.3132L56.9746 71.875Z" fill="#161616"/>
</g>
<defs>
<clipPath id="clip0_594_4808">
<rect width="82.7319" height="82.7319" fill="white" transform="translate(0.544922 0.724609)"/>
</clipPath>
</defs>
</svg>
