<svg width="83" height="84" viewBox="0 0 83 84" fill="none" xmlns="http://www.w3.org/2000/svg">
<g clip-path="url(#clip0_594_4850)">
<rect width="82.7319" height="82.7319" transform="translate(0.267578 0.347656)" fill="#FD8616"/>
<g clip-path="url(#clip1_594_4850)">
<rect width="41.366" height="41.366" transform="translate(0.267578 41.7148)" fill="#161616"/>
<path d="M20.2548 46.2047L20.4003 48.9982C20.7765 56.2218 26.5487 61.994 33.7723 62.3702L36.5658 62.5156L33.7723 62.6611C26.5487 63.0373 20.7765 68.8095 20.4003 76.0331L20.2548 78.8266L20.1093 76.0331C19.7332 68.8095 13.961 63.0373 6.73735 62.6611L3.94385 62.5156L6.73735 62.3702C13.961 61.994 19.7332 56.2218 20.1093 48.9982L20.2548 46.2047Z" fill="#FD8616"/>
</g>
<rect width="41.366" height="41.366" transform="translate(41.6348 0.347656)" fill="#161616"/>
<path d="M62.5236 6.96484C57.3725 6.96484 55.7115 11.5374 55.5248 13.8237C53.2386 14.0103 48.666 15.6713 48.666 20.8224C48.666 25.9735 53.2386 27.6346 55.5248 27.8212C55.6181 30.1075 57.1485 34.68 62.5236 34.68C67.8987 34.68 69.4291 30.1075 69.5224 27.8212C71.8087 27.6813 76.3812 26.0855 76.3812 20.8224C76.3812 15.5594 71.8087 13.9636 69.5224 13.8237C69.3358 11.5374 67.6747 6.96484 62.5236 6.96484Z" fill="#FD8616"/>
</g>
<defs>
<clipPath id="clip0_594_4850">
<rect width="82.7319" height="82.7319" fill="white" transform="translate(0.267578 0.347656)"/>
</clipPath>
<clipPath id="clip1_594_4850">
<rect width="41.366" height="41.366" fill="white" transform="translate(0.267578 41.7148)"/>
</clipPath>
</defs>
</svg>
