<svg width="200" height="142" viewBox="0 0 200 142" fill="none" xmlns="http://www.w3.org/2000/svg">
<g clip-path="url(#clip0_700_9875)">
<rect width="200" height="200" fill="#FD8616"/>
<path d="M-1.92426 102.754L-1.61732 108.648C-0.82362 123.89 11.3556 136.069 26.5971 136.863L32.4913 137.169L26.5971 137.476C11.3556 138.27 -0.82362 150.449 -1.61732 165.691L-1.92426 171.585L-2.2312 165.691C-3.02491 150.449 -15.2041 138.27 -30.4457 137.476L-36.3398 137.169L-30.4457 136.863C-15.2041 136.069 -3.02491 123.89 -2.2312 108.648L-1.92426 102.754Z" fill="#161616"/>
<path d="M66.9039 102.754L67.2108 108.648C68.0045 123.89 80.1837 136.069 95.4253 136.863L101.319 137.169L95.4253 137.476C80.1837 138.27 68.0045 150.449 67.2108 165.691L66.9039 171.585L66.5969 165.691C65.8032 150.449 53.624 138.27 38.3825 137.476L32.4883 137.169L38.3825 136.863C53.624 136.069 65.8032 123.89 66.5969 108.648L66.9039 102.754Z" fill="#161616"/>
<path d="M135.74 102.754L136.047 108.648C136.84 123.89 149.02 136.069 164.261 136.863L170.155 137.169L164.261 137.476C149.02 138.27 136.84 150.449 136.047 165.691L135.74 171.585L135.433 165.691C134.639 150.449 122.46 138.27 107.218 137.476L101.324 137.169L107.218 136.863C122.46 136.069 134.639 123.89 135.433 108.648L135.74 102.754Z" fill="#161616"/>
<path d="M204.572 102.754L204.879 108.648C205.672 123.89 217.852 136.069 233.093 136.863L238.987 137.169L233.093 137.476C217.852 138.27 205.672 150.449 204.879 165.691L204.572 171.585L204.265 165.691C203.471 150.449 191.292 138.27 176.05 137.476L170.156 137.169L176.05 136.863C191.292 136.069 203.471 123.89 204.265 108.648L204.572 102.754Z" fill="#161616"/>
<path d="M33.1773 137.168L33.4842 143.062C34.2779 158.304 46.4571 170.483 61.6987 171.277L67.5929 171.584L61.6987 171.89C46.4571 172.684 34.2779 184.863 33.4842 200.105L33.1773 205.999L32.8704 200.105C32.0767 184.863 19.8975 172.684 4.6559 171.89L-1.23828 171.584L4.6559 171.277C19.8974 170.483 32.0767 158.304 32.8704 143.062L33.1773 137.168Z" fill="#161616"/>
<path d="M102.013 137.168L102.32 143.062C103.114 158.304 115.293 170.483 130.535 171.277L136.429 171.584L130.535 171.89C115.293 172.684 103.114 184.863 102.32 200.105L102.013 205.999L101.706 200.105C100.913 184.863 88.7334 172.684 73.4918 171.89L67.5977 171.584L73.4918 171.277C88.7334 170.483 100.913 158.304 101.706 143.062L102.013 137.168Z" fill="#161616"/>
<path d="M170.841 137.168L171.148 143.062C171.942 158.304 184.121 170.483 199.363 171.277L205.257 171.584L199.363 171.89C184.121 172.684 171.942 184.863 171.148 200.105L170.841 205.999L170.534 200.105C169.741 184.863 157.562 172.684 142.32 171.89L136.426 171.584L142.32 171.277C157.562 170.483 169.741 158.304 170.534 143.062L170.841 137.168Z" fill="#161616"/>
<path d="M-1.23676 33.9219L-0.929825 39.8161C-0.13612 55.0576 12.0431 67.2368 27.2846 68.0305L33.1788 68.3375L27.2846 68.6444C12.0431 69.4381 -0.13612 81.6173 -0.929825 96.8589L-1.23676 102.753L-1.5437 96.8589C-2.33741 81.6173 -14.5166 69.4381 -29.7582 68.6444L-35.6523 68.3375L-29.7582 68.0305C-14.5166 67.2368 -2.33741 55.0576 -1.5437 39.8161L-1.23676 33.9219Z" fill="#161616"/>
<path d="M67.5953 33.9219L67.9022 39.8161C68.6959 55.0576 80.8751 67.2368 96.1167 68.0305L102.011 68.3375L96.1167 68.6444C80.8751 69.4381 68.6959 81.6173 67.9022 96.8589L67.5953 102.753L67.2883 96.8589C66.4946 81.6173 54.3154 69.4381 39.0739 68.6444L33.1797 68.3375L39.0739 68.0305C54.3154 67.2368 66.4946 55.0576 67.2883 39.8161L67.5953 33.9219Z" fill="#161616"/>
<path d="M136.427 33.9219L136.734 39.8161C137.528 55.0576 149.707 67.2368 164.949 68.0305L170.843 68.3375L164.949 68.6444C149.707 69.4381 137.528 81.6173 136.734 96.8589L136.427 102.753L136.12 96.8589C135.327 81.6173 123.147 69.4381 107.906 68.6444L102.012 68.3375L107.906 68.0305C123.147 67.2368 135.327 55.0576 136.12 39.8161L136.427 33.9219Z" fill="#161616"/>
<path d="M205.259 33.9219L205.566 39.8161C206.36 55.0576 218.539 67.2368 233.781 68.0305L239.675 68.3375L233.781 68.6444C218.539 69.4381 206.36 81.6173 205.566 96.8589L205.259 102.753L204.952 96.8589C204.159 81.6173 191.979 69.4381 176.738 68.6444L170.844 68.3375L176.738 68.0305C191.979 67.2368 204.159 55.0576 204.952 39.8161L205.259 33.9219Z" fill="#161616"/>
<path d="M33.1773 68.3359L33.4842 74.2301C34.2779 89.4717 46.4571 101.651 61.6987 102.445L67.5929 102.752L61.6987 103.058C46.4571 103.852 34.2779 116.031 33.4842 131.273L33.1773 137.167L32.8704 131.273C32.0767 116.031 19.8975 103.852 4.6559 103.058L-1.23828 102.752L4.6559 102.445C19.8974 101.651 32.0767 89.4717 32.8704 74.2301L33.1773 68.3359Z" fill="#161616"/>
<path d="M102.013 68.3359L102.32 74.2301C103.114 89.4717 115.293 101.651 130.535 102.445L136.429 102.752L130.535 103.058C115.293 103.852 103.114 116.031 102.32 131.273L102.013 137.167L101.706 131.273C100.913 116.031 88.7334 103.852 73.4918 103.058L67.5977 102.752L73.4918 102.445C88.7334 101.651 100.913 89.4717 101.706 74.2301L102.013 68.3359Z" fill="#161616"/>
<path d="M170.841 68.3359L171.148 74.2301C171.942 89.4717 184.121 101.651 199.363 102.445L205.257 102.752L199.363 103.058C184.121 103.852 171.942 116.031 171.148 131.273L170.841 137.167L170.534 131.273C169.741 116.031 157.562 103.852 142.32 103.058L136.426 102.752L142.32 102.445C157.562 101.651 169.741 89.4717 170.534 74.2301L170.841 68.3359Z" fill="#161616"/>
<path d="M32.4898 -6L32.7967 -0.105824C33.5904 15.1357 45.7696 27.3149 61.0112 28.1086L66.9054 28.4156L61.0112 28.7225C45.7696 29.5162 33.5904 41.6954 32.7967 56.937L32.4898 62.8312L32.1829 56.937C31.3892 41.6954 19.21 29.5162 3.9684 28.7225L-1.92578 28.4156L3.9684 28.1086C19.2099 27.3149 31.3892 15.1357 32.1829 -0.105821L32.4898 -6Z" fill="#161616"/>
<path d="M101.322 -6L101.629 -0.105824C102.422 15.1357 114.602 27.3149 129.843 28.1086L135.737 28.4156L129.843 28.7225C114.602 29.5162 102.422 41.6954 101.629 56.937L101.322 62.8312L101.015 56.937C100.221 41.6954 88.042 29.5162 72.8004 28.7225L66.9062 28.4156L72.8004 28.1086C88.042 27.3149 100.221 15.1357 101.015 -0.105821L101.322 -6Z" fill="#161616"/>
<path d="M170.154 -6L170.461 -0.105824C171.255 15.1357 183.434 27.3149 198.675 28.1086L204.569 28.4156L198.675 28.7225C183.434 29.5162 171.255 41.6954 170.461 56.937L170.154 62.8312L169.847 56.937C169.053 41.6954 156.874 29.5162 141.632 28.7225L135.738 28.4156L141.632 28.1086C156.874 27.3149 169.053 15.1357 169.847 -0.105821L170.154 -6Z" fill="#161616"/>
<path d="M66.4156 -40L66.7225 -34.1058C67.5162 -18.8643 79.6954 -6.68506 94.937 -5.89136L100.831 -5.58442L94.937 -5.27748C79.6954 -4.48378 67.5162 7.69543 66.7225 22.937L66.4156 28.8312L66.1086 22.937C65.3149 7.69543 53.1357 -4.48378 37.8942 -5.27748L32 -5.58442L37.8942 -5.89136C53.1357 -6.68506 65.3149 -18.8643 66.1086 -34.1058L66.4156 -40Z" fill="#161616"/>
<path d="M136.416 -40L136.723 -34.1058C137.516 -18.8643 149.695 -6.68506 164.937 -5.89136L170.831 -5.58442L164.937 -5.27748C149.695 -4.48378 137.516 7.69543 136.723 22.937L136.416 28.8312L136.109 22.937C135.315 7.69543 123.136 -4.48378 107.894 -5.27748L102 -5.58442L107.894 -5.89136C123.136 -6.68506 135.315 -18.8643 136.109 -34.1058L136.416 -40Z" fill="#161616"/>
</g>
<defs>
<clipPath id="clip0_700_9875">
<rect width="200" height="200" fill="white"/>
</clipPath>
</defs>
</svg>
