<svg width="155" height="142" viewBox="0 0 155 142" fill="none" xmlns="http://www.w3.org/2000/svg">
<g clip-path="url(#clip0_700_9870)">
<rect width="200" height="200" fill="#FD8616"/>
<path d="M0 100L20.202 120.202C31.8182 109.596 56.0606 97.4747 79.798 121.212C100 141.414 90.4041 169.192 79.798 179.798L100 200L119.697 180.303C109.596 170.202 98.4849 142.929 120.202 121.212C142.929 98.4848 170.707 110.101 180.303 119.697L200 100L180.303 80.303C170.707 89.899 143.434 102.02 121.717 80.303C99.495 58.0808 108.586 30.808 119.697 19.6969L100 -5.2211e-05L80.3031 19.6969C90.4041 29.7979 101.01 57.5757 79.293 79.2929C59.0869 99.499 31.8182 92.4242 19.697 80.303L0 100Z" fill="#F7B03C"/>
</g>
<defs>
<clipPath id="clip0_700_9870">
<rect width="200" height="200" fill="white"/>
</clipPath>
</defs>
</svg>
